<?xml version="1.0" encoding="UTF-8"?><svg id="b" xmlns="http://www.w3.org/2000/svg" width="105.93" height="105.93" viewBox="0 0 105.93 105.93"><defs><style>.d{stroke:#000;}.d,.e{stroke-width:2px;}.f{fill:#fff;}.e{fill:#ed1c24;stroke:#ed1c24;}.g{fill:none;}</style></defs><g id="c"><circle class="g" cx="24.72" cy="34.92" r=".88"/><path class="g" d="m55.79,25.6c0,1.47-1.19,2.66-2.66,2.66s-2.66-1.19-2.66-2.66,1.19-2.66,2.66-2.66c1.47,0,2.66,1.19,2.66,2.66Z"/><circle class="g" cx="71.59" cy="24.93" r=".88"/><circle class="g" cx="24.72" cy="34.94" r=".88"/><path class="e" d="m43.98,97.56c-9.82,9.82-25.8,9.82-35.62,0-9.82-9.82-9.82-25.8,0-35.62,3.84-3.84,8.93-6.37,14.31-7.13.35-.05.71.06.97.29.27.23.42.57.42.92v21.57c-.01,2.36,1.91,4.28,4.27,4.28h21.57c.35,0,.69.14.92.41.23.27.34.62.29.97-.75,5.38-3.29,10.47-7.13,14.31h0Z"/><path class="f" d="m19.28,62.7c1.72,1.72,1.72,4.51,0,6.22-1.72,1.72-4.5,1.72-6.22,0-1.72-1.72-1.72-4.51,0-6.22,1.72-1.72,4.51-1.72,6.22,0Z"/><path class="d" d="m26.88,60.41c0-.77.63-1.4,1.4-1.4h17.64c.77.01,1.4.64,1.4,1.41v17.62c.01.77-.62,1.4-1.39,1.4h-17.64c-.77-.01-1.4-.64-1.4-1.41v-17.62Z"/><path class="e" d="m43.99,8.36c3.85,3.85,6.38,8.93,7.13,14.31.05.35-.06.71-.29.97-.23.27-.57.42-.92.42h-21.57c-2.36,0-4.28,1.91-4.28,4.27v21.57c.01.35-.14.69-.41.92-.27.23-.62.34-.97.29-5.39-.76-10.47-3.29-14.31-7.13-9.82-9.82-9.82-25.8,0-35.62,9.82-9.82,25.8-9.82,35.62,0h0Z"/><path class="f" d="m43.5,19.24c-1.72,1.72-4.51,1.72-6.22,0-1.72-1.72-1.72-4.5,0-6.22,1.72-1.72,4.51-1.72,6.22,0,1.72,1.72,1.72,4.5,0,6.22Z"/><path class="e" d="m61.94,97.57c-3.85-3.84-6.38-8.93-7.13-14.31-.05-.35.06-.71.29-.97.23-.27.57-.42.92-.42h21.57c2.36,0,4.28-1.91,4.28-4.27v-21.57c-.01-.35.14-.69.41-.92.27-.23.62-.34.97-.29,5.39.76,10.47,3.29,14.31,7.13,9.82,9.82,9.82,25.8,0,35.62-9.82,9.82-25.8,9.82-35.62,0h0Z"/><path class="f" d="m62.75,86.92c1.72-1.72,4.51-1.72,6.22,0,1.72,1.72,1.72,4.51,0,6.22s-4.51,1.72-6.22,0c-1.72-1.72-1.72-4.51,0-6.22Z"/><path class="e" d="m97.57,43.99c-3.84,3.85-8.93,6.38-14.31,7.13-.35.05-.71-.06-.97-.29-.27-.23-.42-.57-.42-.92v-21.57c0-2.36-1.91-4.28-4.27-4.28h-21.57c-.35.01-.69-.14-.92-.41-.23-.27-.34-.62-.29-.97.76-5.39,3.29-10.47,7.13-14.31,9.82-9.82,25.8-9.82,35.62,0,9.82,9.82,9.82,25.8,0,35.62h0Z"/><path class="f" d="m86.98,43.46c-1.72-1.72-1.72-4.51,0-6.22,1.72-1.72,4.51-1.72,6.22,0s1.72,4.51,0,6.22c-1.72,1.72-4.51,1.72-6.22,0Z"/><path class="d" d="m58.89,60.35c0-.77.63-1.4,1.4-1.4h17.64c.77.01,1.4.64,1.4,1.41v17.62c.01.77-.62,1.4-1.39,1.4h-17.64c-.77-.01-1.4-.64-1.4-1.41v-17.62Z"/><path class="d" d="m58.89,27.53c0-.77.63-1.4,1.4-1.4h17.64c.77.01,1.4.64,1.4,1.41v17.62c.01.77-.62,1.4-1.39,1.4h-17.64c-.77-.01-1.4-.64-1.4-1.41v-17.62Z"/><path class="d" d="m26.93,27.53c0-.77.63-1.4,1.4-1.4h17.64c.77.01,1.4.64,1.4,1.41v17.62c.01.77-.62,1.4-1.39,1.4h-17.64c-.77-.01-1.4-.64-1.4-1.41v-17.62Z"/></g></svg>