<?xml version="1.0" encoding="UTF-8"?><svg id="a" xmlns="http://www.w3.org/2000/svg" viewBox="0 0 32 32"><defs><style>.b{fill:#fcfdfd;}.c{fill:#085062;}.d{fill:#659a9a;}.e{fill:#23a24c;}.f{fill:#e2201f;}</style></defs><path class="f" d="m5.49,381.62c2.9-.78,1.66-3.22,2-5.02.94-.72,2.63-1.36,2.72-2.18,1.54-14.15,7.73-26.94,11.55-40.41,2.35-8.29,3.97-16.76,7.56-24.69,8.48-18.73,20.96-35.11,31.35-52.71,19.79-33.52,47.87-60.64,78.11-83.86,25.67-19.71,53.59-37.56,85.81-47.43,21.47-6.57,41.71-16.04,64.66-18.68,30.53-3.51,60.54-7.46,91.68-5.22,30.59,2.2,60.29,6.37,88.37,18.15,15.96,6.7,33.68,9.46,47.88,19.81,4.7,3.43,6.39,2.75,10.51-.19,23.31-16.63,46.92-32.79,73.49-44.11,22.62-9.64,43.05-23.8,66.59-31.76,36.02-12.19,71.05-26.7,108.41-35.64,49.52-11.85,98.92-21.84,149.93-22.59,2.88-.04,5.71-.72,8.66,2.28,18.8,19.09,38.03,37.77,57.14,56.57,7.07,6.95,8.47,13.42.49,21.27-10.32,10.15-19.63,21.33-29.53,31.92-8.56,9.16-18.75,16.67-27.86,25.21-9,8.44-24.4,9.85-37,10.27-31.62,1.06-61.86,9.52-91.77,17.24-35.66,9.2-70.99,21.22-104.48,37.18-18.57,8.85-36.18,19.73-54.17,29.78-5.37,3-9.05,6.57-3.74,12.93,25.52,30.53,38.72,67.62,51.62,104.09,8.54,24.17,11.86,50.64,13.24,76.63,1.94,36.74-1.45,72.71-10.93,108.83-10.39,39.58-24.63,76.43-47.01,110.8-19.51,29.96-45.75,53.26-70.64,77.98-11.13,11.06-25.82,17.97-38.13,27.3-19.87,15.05-42.73,21.85-64.74,31.25-12.59,5.38-26.67,6.53-39.21,10.95-22.51,7.94-45.19,10.78-68.57,11.08-15.37.19-30.74.11-46.11.03-4.29-.02-7.69-.19-7.81,6-.44,21.72-1.07,43.76,3.36,64.83,5.1,24.28,7.97,48.91,12.78,73.22,7.72,38.97,20.18,76.14,34.34,112.84,8.44,21.87,19.96,42.54,29.77,63.9,5.21,11.35,3.76,13.02-8.97,11.72-1.94-.2-3.85-.84-5.74-1.39-17.97-5.19-35.85-10.72-53.93-15.5-12.98-3.44-22.18,2.65-23.54,16.44-2.14,21.66-12.05,41.31-15.5,62.68-.53,3.3.53,15.84-11.17,12.8,0,0,.02,0,.02,0-.24-3.19-1.01-5.98-2.59-9.02-14.9-28.68-33.36-55.69-40.8-87.9-3.18-13.79-11.95-25.27-17.03-38.49-16.44-42.77-25.07-87.43-34.31-131.94-2.03-9.78-1.43-19.94-4.67-30-3.09-9.61-1.24-20.69-3.28-30.77-3.01-14.95-4.17-30.25-3.77-45.06.73-27.08-.93-54.08-.39-81.11.08-3.94-1.17-7.29-4.99-8.78-24.35-9.46-40.11-29.94-59-46.3-24.41-21.14-40.7-49.1-60.19-74.37,0,0-.73-.81-.73-.81-9.4-22.35-19.64-44.39-27.96-67.13-9.35-25.55-15.99-52.23-16.78-79.39-1.01-34.52-.78-69.22,5.03-103.52Zm316.13,23.5c-.85,9.59-1.83,19.18,0,28.77,0,2.07,0,4.15,0,6.22-2.52,14.57,1.22,29.55-2.91,44.03-.47,1.64.66,2.99,2.72,2.85.05,2.32.09,4.64.14,6.96-.76,2.94-1.67,5.89.12,8.79,1.56.94,3.13,1.87,4.69,2.81,24.18,2.51,48.38,2.09,72.57.18,3.26-16.28,2.43-17.31-13.87-17.32-11.71,0-23.45-.57-35.12.14-9.43.58-10.91-4.11-9.93-11.65.91-6.99-4.21-17.28,10.17-16.48,11.27.63,22.61-.27,33.91.09,6.43.21,9.47-1.19,9.29-8.53-.16-6.65-1.8-9.34-8.9-9.05-11.68.48-23.43-.45-35.11.07-10.21.46-6.85-6.74-7.01-11.51-.17-4.98-2.72-11.81,7.2-11.37,12.9.56,25.84.06,38.76.18,5.52.05,10.11.44,9.89-7.79-.21-7.82-3.69-9.73-10.49-9.47-6.85.26-13.75-.29-20.59.12-15.17.92-30.53-2.58-45.53,1.94Zm-15.44,98.58c-4.21-4.93-.12-12.91-6.42-16.94-7.47-4.78-10.08-13.16-15.5-19.44-3.57-4.13-3.34-7.85,3.16-10.48,11.88-4.81,15.63-13.92,13.56-31.82-1.32-11.43-9.26-17.02-19.79-19.57-18.24-4.41-36.8-1.41-55.18-2.45-5.24-.3-7.03,1.89-7.01,7.04.13,30.27.03,60.54.06,90.82,0,2.73-.25,5.31,3.66,6.47,10.85,3.24,16.84-.84,17.04-12.31.11-6.46-.29-12.94.14-19.37.27-3.95-2.68-9.55,3.07-11.44,5.08-1.67,10,.35,14.39,3.63,7.85,5.86,12.61,14.31,16.74,22.52,6.98,13.86,16.93,17.95,32.08,13.32Zm109.97-49.59h.04c0,14.14.29,28.29-.11,42.43-.23,8.09,2.17,11.75,10.97,11.03,9.23-.75,18.86-1.66,27.81.1,22.15,4.35,42.56-20.27,44.83-37.67,1.25-9.53,2.14-19.86-.23-28.95-3.79-14.54-8.23-28.65-26.36-34.48-17.73-5.7-34.98-1.98-52.39-2.96-5.64-.32-4.46,4.76-4.49,8.06-.16,14.14-.07,28.29-.07,42.43Z"/><path class="e" d="m1731.23,1119.32c-.35.73-.57,1.5-.67,2.3-8.91,10.58-13.84,23.03-17.11,36.27,0,0,.1-.07.1-.07-5.59,5.25-5.71,15.79-15.36,16.97-22.73,2.78-44.12,10.5-65.98,16.66-10.65,3-22.7,7.4-31.8-4.46-1.31-3.07,1.26-7.26-2.73-9.57,1.12-18.29-6.57-34.99-10.82-52.08-3.52-14.13-8.56-26.5-1.02-40.9,5.05-9.64,9.08-20.05,13.09-30.14,8.71-21.85,16.16-44.44,21.5-67.34,6.26-26.82,16.89-52.9,15.98-81.16,4.44-4.48,1.49-9.8,1.67-14.76,5.43-17.41,4.47-35.53,5.9-53.38,1.34-.63,1.72-1.61,1.1-2.96.08-8.63.16-17.27.24-25.9-.16-2.88-1.93-3.05-4.15-2.47-1.6.12-3.19.24-4.79.36-1.31-.6-2.14-.13-2.61,1.16-6.4.29-12.8.87-19.2.82-25.54-.2-50.93.37-76.45-4.38-19.57-3.64-38.07-10.51-57.36-14.63-14.01-2.25-25.56-10.8-38.78-15.06-.54-2.06-1.68-3.55-3.71-4.43-17.45-7.56-32.52-19.09-48.24-29.46-17.94-11.83-33.93-26.46-48.41-42.02-33.22-35.69-58.05-76.97-74.7-122.96.19-3.42.63-6.89-2.12-9.67-13.13-26.9-17.4-55.79-19.25-85.23,3.19-16.15,3.03-32.29-.02-48.44,2.21-21.22,2.41-42.78,8.8-63.35,6.62-21.31,14.06-42.32,22.75-62.94,7.79-18.49,17.58-35.41,31.06-50.22,7.17-7.88,6.35-18.94-3.06-24.22-17.83-10.02-35.17-21.27-55.35-26.42l-.04-.1c-3.29-5.57-9.72-4.94-14.6-7.35-22.66-11.19-46.51-19.97-70.66-26.46-15.37-4.14-31.93-6-47.7-9.44-41.47-9.04-83.1-14.74-125.59-13.78-3.93.09-8.96,2.03-11.46-3.25,2.71-3.27,5.22-6.3,7.73-9.34,12.59-9.94,23.32-21.72,33.59-33.95,2.95-3.04,5.55-6.56,8.91-9.04,17.24-12.73,15.25-24.28-1.29-37.55-19.35-15.52-33.98-35.42-52.2-51.85,12.82-.25,25.65-.49,38.47-.74,9.34-1.38,18.22,2.42,27.36,2.55,28.33.42,56.09,5.41,83.91,9.92,19,3.08,38.53,4.72,56.74,10.44,16.7,5.24,33.58,10.39,49.94,17.52,22.75,9.92,47.51,15,70.54,25.16,29.31,12.93,56.78,29.25,85.37,43.45,14.44,7.17,25.46,19.88,40.23,26.95,4.39,2.1,6.92,2.39,11.74-.16,15.75-8.32,31.59-17.95,48.6-22.03,28.15-6.76,56.15-16.41,85.89-14.37,7.33-.34,14.87,2.03,21.94-1.67,6.56.06,13.12.13,19.68.19,2.02,2.42,4.69,1.77,7.27,1.56,43.46,1.44,84.34,13.96,124.02,30.43,5.73,2.38,12.17,4.54,17.94,8.28,12.7,8.23,24.6,17.79,37.69,25.21,22.06,12.51,40.14,30.02,56.86,47.94,17.08,18.31,32.27,38.86,44.79,61.31,9.68,17.34,17.15,35.55,25.22,53.43,14.76,32.72,19.36,68.08,21.48,103.7.01,15.46.03,30.92.04,46.39-1.85,30.9-8.37,60.71-17.85,90.26-6.7,20.89-15.26,40.89-25.53,59.84-9.85,18.18-22.87,34.64-36.09,50.96-18.63,23-38.67,44.71-63.52,59.67-18.47,11.11-22.71,24.06-19.94,42.69.05,21.74.1,43.48.15,65.23,1.49,7.41-2.93,14.08-2.65,21.37.91,23.77-5.57,46.85-6.59,70.47-.93,21.58-12.34,41.59-10.14,63.73-.39.71-.63,1.46-.72,2.27-6.78,9.32-7.07,21.02-11.45,31.18-7.25,16.86-8.15,35.5-16.29,52.34-4.56,9.42-9.54,19.62-10.32,30.74Zm89.46-655.55c-.67-.83-1.34-1.66-2.01-2.49-10.52-17.95-20.85-36.02-31.64-53.81-4.25-7.01-11.73-3.95-17.68-3.52-6.78.49-4.17,6.75-4.2,10.6-.21,26.98-.23,53.97.04,80.95.04,3.88-2.56,10.02,3.33,11.27,5.38,1.14,12.26,3.16,15.8-4.35,4.62-12.31.93-25.07,2.07-37.57.4-4.39-1.79-10.13,5.49-11.17,10.22,14.3,19.89,28.95,28.01,44.58,5.87,11.31,14.7,11.5,24.84,6.35,5.67-9.29,2.38-19.5,2.31-29.15-.15-20.02,2.47-40.15-1.37-60.08-.04-1.66-.09-3.32-.13-4.98.28-.21.83-.52.79-.6-.22-.56-.56-1.07-.87-1.6-2.84-9.14-10.38-2.73-15.39-4.65-2.12-.39-3.91-.31-3.76,2.59,0,1.31-.01,2.63-.02,3.94-1.74,11.61-1.57,23.23-.26,34.86.04,2.08.08,4.15.12,6.23.04,1.23.09,2.46.13,3.69-.09,2.85-.18,5.69-.27,8.54-1.56,2.53-3.47.82-5.27.44l-.07-.06Zm-242.51,41.69c24.15,3.71,48.33,2.84,72.52.41,4.99-15.85,3.88-17.53-11.45-17.46-6.81.03-13.63-.01-20.44-.01q-26.04,0-23.27-26.81c13.55.08,27.1.22,40.65.24,13.42.01,15.86-4.38,10.03-17.81-3.43-.23-6.86-.46-10.29-.68-13.45-3.05-27.08-.67-40.61-1.35-.04-6.46-.07-12.92-.11-19.37,17.63-1.03,35.39,1.86,52.94-1.63,5.91-14.83,4.23-17.54-10.82-17.57-16.11-.03-32.25.45-48.33-.31-9.66-.46-13.49,1.76-13.19,12.42.76,26.97.2,53.97.25,80.95,0,3.1-.93,6.54,2.12,8.98Zm92.6-.61c1.12,2.97,3.78,2.64,6.1,2.64,21.43.05,42.87.05,64.3.01,2.35,0,4.97.3,6.03-2.72q.8-16.38-14.96-16.44c-10.01-.03-20.03.31-30.02-.17-4.25-.2-11.82,2.7-12.02-3.52-.24-7.68-5.56-17.14,3.89-23.47,15.34.68,30.7,2.1,45.99-.75,3.89-3.84,1.34-8.78,2.25-13.13.8-3.83-1.51-5.35-4.65-5.27-12.76.33-25.61-1.79-38.26,1.36-1.66-.03-3.32-.06-4.99-.09-.86-.41-1.72-.82-2.59-1.23-4.57-6.03-1.57-12.82-1.92-19.27,10.69-.08,21.41.27,32.06-.38,7.6-.46,15.7,2.84,22.8-2.43-1.27-5.94,5.77-16.05-6.77-16.43-20.59-.62-41.21-.15-61.81.05-3.21.03-6.4-.62-6.25,5.51.74,31.9.63,63.81.82,95.72Zm-215.45-50.56c-1.23-1.18-2.45-2.37-3.68-3.55-1.67-2-3.31-1.82-4.91.08-1.6-.03-3.2-.06-4.8-.09-9.67-2.22-19.32-3.02-28.91.39-4.5,15.4-3.73,16.65,11.15,17.14,4.08.13,8.57-.42,10.12,4.45.93,2.92.86,5.99-1.7,8.95-10.62,12.29-32.71,11.35-43.47-.76-9.86-11.1-7.81-23.79-7.83-36.42-.01-10.99,8.11-21.71,17.86-24.19,12.94-3.3,24.4.61,31.01,10.19,5.31,7.7,12.6,4.5,18.43,1.65,5.89-2.88,2.49-7.3.16-11.92-10.69-21.25-51.75-20.64-65.15-12.4-27.54,16.93-32.75,61.41-10.66,83.1,11.52,11.31,24.02,19.91,43.45,15.26,13.35-3.19,25.34-8.23,37.62-13.39,1.55-.48,1.97-1.51,1.45-3,.06-1.12.12-2.23.18-3.35,1.32-10.73,2.14-21.45-.34-32.13Zm39.56,40.84c-.04-6.86-.14-13.71-.11-20.57.05-11.28,5.26-13.86,15.65-8.75,8.95,4.41,11.76,13.44,15.9,20.86,9.9,17.74,13.71,20.45,34.05,17.29-2.2-9.94-11.84-27.77-20.47-35.4-5.99-5.3-7.19-7.04,1.34-11.57,14.5-7.7,17.89-17.48,14.13-34.7-2.42-11.1-12.19-12.11-21.48-15.36-15.98-5.6-31.94-2.02-47.8-3.57-9.21-.9-12.69,1.77-12.41,11.76.71,25.8.21,51.64.21,77.47,0,16.45,3.13,18.44,19.15,12.17,1.14-.06,2.28-.13,3.41-.19-.35-.55-.7-1.1-1.06-1.65-.19-1.61-.37-3.22-.56-4.83.01-.99.02-1.98.04-2.97Z"/><path class="d" d="m432.1,1407.72c-.62-.66-1.24-1.32-1.86-1.97-3.56-3.82-6.92-7.85-10.71-11.43-41.12-38.95-76.92-82.37-109.02-128.94-3.03-4.4-6.01-8.73-3.72-14.42,9.06-22.51,13.15-46.44,19.88-69.62,5.72-19.7,9.34-21.65,29.25-16.4,16.58,4.37,32.41,11.33,49.69,13.42,19.86,2.4,34.19,12.92,43.78,30.8,3.6,6.71,7.64,14.02,15.16,17.84,1.44,2.13,2.88,4.27,4.31,6.41,11.85,16.34,25.98,30.65,40.15,44.89,34.75,34.93,72.16,66.57,114.5,92.08.89.56,1.78,1.11,2.67,1.67,6.34,8.4,11.29,3.53,14.45-2.44,2.75-5.19,3.49-11.44,5.12-17.22,0,0-.01.02-.01.02,13.89-34.38,31.38-66.81,52.71-97.16,1.73-2.62,2.29-6.08,5.52-7.61,4.61-2.88,8.28-6.58,10.25-11.76.79-.23,1.21-.75,1.25-1.57,20.43-20.09,41.52-39.44,64.69-56.4,1.93-.02,3.52-.59,4.13-2.66,33.87-21.8,70.52-37.32,109.12-48.5,1.59-.29,3.18-.57,4.77-.86,18.26-3.14,36.79-4.5,55.07-6.91,33.13-4.38,65.21.75,97.56,4.82,21.97,2.77,42.17,12.31,63.43,17.84l.51.33.5-.34c.94,1.25,1.63,3.2,2.87,3.65,41.25,15.06,75.8,40.35,107.75,69.8,23.86,22,42.01,48.52,60.49,74.82-.09.73.13,1.35.65,1.86.65.85,1.29,1.7,1.94,2.55l-.11-.08c12.28,25.27,24.74,50.48,32.3,77.69,1.9,6.83,4.59,6.67,9.92,3.43,9.99-6.06,19.82-12.26,28.74-19.83,1.49-1.06,2.98-2.13,4.47-3.19,25.95-16.53,49.14-36.42,70.95-58.01,2.34-2.25,4.68-4.5,7.02-6.75,45.56-41.86,81.99-90.99,114.35-146.45,4.39,14.04,7.91,25.32,11.43,36.6,2.68,12.45,4.81,25.06,8.18,37.33,4.67,17.01,9.45,21.06,22.33,17.91,19.95-4.88,39.6-11,59.38-16.59l.05-.03c8.61.58,16.31-5.67,25.62-4.02-7.62,12.57-14.73,24.53-22.07,36.35-18.4,29.65-40.34,56.73-61.43,84.42,0,0-.26.24-.26.24-.64.71-1.28,1.43-1.92,2.14,0,0-.34.57-.34.57-10.65,11.89-21.3,23.77-31.95,35.66,0,0,.05-.06.05-.06-4.5.42-7.02,2.79-7.26,7.39,0,0,.02-.02.02-.02-25.99,23.39-51.98,46.79-77.97,70.18,0,0,.04-.1.04-.09-14.1,6.89-25.17,18.07-37.94,26.87-34.41,23.72-70.63,44.3-107.81,63.27-5.03,2.57-10.85,4.53-8.53,12.21-.2,1.61-.4,3.22-.6,4.83-5.04,16.1-10.09,32.21-15.13,48.31,0,0,.13-.04.13-.04-8.39,13-13.25,27.71-20.12,41.45-1.29,1.71-2.58,3.43-3.86,5.14-6.15,2.58-5.51,9.41-8.65,13.96-71.18,103.11-169.26,156.75-294.49,160.59-25.35.78-50.36-1.36-75.23-7.12-29.86-6.92-58.23-17.65-86.57-29-15.54-6.22-26.33-19.83-42.41-24.62-1.66-1.54-3.32-3.08-4.99-4.62-28.14-21.75-53.85-45.94-75.72-74.14-18.36-23.66-32.03-50.02-45.23-76.68-.69-1.65-1.38-3.3-2.06-4.95-5.85-18.79-11.56-37.63-17.67-56.33-1.06-3.24-3.49-5.88-6.97-7.79-20.04-11.02-39.87-22.4-59.78-33.65-3.42-1.93-6.36-5.34-10.98-3.59-1.55-1.06-3.11-2.12-4.66-3.18-10.13-7.62-20.22-15.28-30.39-22.86-12.51-9.32-25.3-18.26-37.55-27.9-17.27-13.59-34.15-27.67-51.19-41.54Zm706.35,29.69c-3.42-5.54,5.58-17.23-8-17.52-21.77-.46-43.55.05-65.33-.24-7.23-.09-7.56,4.08-7.54,9.37.02,4.99.84,8.78,7.22,8.3,4.01-.3,8.12.44,12.08-.09,8.81-1.19,10.86,2.74,10.68,10.94-.47,21.77.13,43.55-.24,65.32-.13,7.34,3.03,8.76,9.41,8.56,6.04-.19,11.05.25,10.75-8.49-.54-15.71-.17-31.45-.17-47.18q0-30.44,31.28-29.12c.89,3.6-1.78,6.06-3,8.94-9.59,22.66-3.1,54.6,13.66,67.34,29.3,22.28,69.61,6.27,77.66-21.56,2.45-8.46.6-16.83,1.32-25.21,3.27-37.67-40.76-55.64-65.63-46.47-9.93,3.66-16,11.6-24.16,17.11Zm-432.59,39.94c23.14-10.71,27.66-21.65,19.99-42.9-2.51-6.95-6.91-10.01-13.73-11.7-17.88-4.44-36.03-2.28-54.05-3.15-9.73-.47-13.57,3.65-12.26,12.88,3.7,26.09,1.1,52.31,1.72,78.46.15,6.2-.81,11.9,8.96,11.5,8.39-.34,11.86-2.92,11.12-11.41-.52-6.02-.23-12.12-.18-18.18.12-12.59,4.22-14.91,16.38-10.31,4.59,1.74,7.26,4.91,9.75,8.56,5.68,8.34,11.43,16.66,16.73,25.24,2.61,4.22,5.54,6.05,10.7,5.99,27.88-.35,55.76-.45,83.64-.31,6.03.03,8.62-1.39,8.62-8.06,0-6.52-1.32-9.53-8.59-9.27-12.92.47-25.87-.15-38.79.17-6.13.15-9.13-1.64-8.5-8.18.34-3.6.38-7.31-.07-10.9-.98-7.78,2.69-9.75,9.79-9.49,11.3.42,22.64-.16,33.94.2,7.28.23,7.34-4.01,7.41-9.33.07-5.48-1.5-8.13-7.55-7.96-11.71.34-23.46-.38-35.15.22-8.87.46-8.63-4.73-8.4-10.77.23-5.9-1.54-12.46,8.53-11.92,12.09.64,24.25-.06,36.36.29,6.09.18,8.7-1.51,8.63-8.12-.07-6.4-1.36-9.62-8.68-9.36-13.73.48-27.48.14-41.22.16-28.41.04-27.97,1.14-24.73,29.98,2.43,21.66.48,43.81.48,68.34-10.7-15.08-17.14-30.12-30.85-40.7Zm584.68.63c3.38-1.72,5.13-2.68,6.93-3.52,15.35-7.17,21.82-17.67,17.92-32.56-3.53-13.45-10.8-21.24-27.84-21.72-15.33-.43-30.68-.22-46.01-.5-5.32-.1-8.2,1.29-8.16,7.42.19,29.07.28,58.14-.06,87.2-.1,8.31,4.87,7.6,10.27,7.65,5.89.05,11.45.62,10.8-8.33-.61-8.43-.24-16.95-.13-25.42.15-12.02,2.85-13.5,13.62-7.85,13.42,7.04,18.86,20.84,25.97,32.61,5.28,8.74,11.37,9.46,19.68,9.33,7.01-.11,9.39-3.12,5.86-8.8-7.77-12.51-13.92-26.41-28.84-35.51Zm-365.11-57.32c-9.27-2.48-12.98,2.24-16.08,10.85-9.44,26.15-20.08,51.87-29.94,77.88-1.37,3.62-6.78,7.84-2.49,11.28,3.9,3.13,9.59,2.01,14.78-.14,5.63-2.33,8.2-6.49,9.12-11.79,1.71-9.77,9.37-9.89,16.22-9.46,3.43.22,7.16,1.45,10.61.97,13.06-1.81,21.26,2.2,24.53,16.12,2.5,10.65,12.56,6.29,18.27,4.91,6.02-1.46,2.27-7.76.57-12.09-10.45-26.6-21.12-53.12-31.1-79.9-2.76-7.4-6.73-10.38-14.51-8.63Zm45.69,50.19c-.58,6.18.53,13.34,2.66,20.33,5.37,17.64,23.06,32.39,39.94,33.45,17.21,1.07,34.96-8.78,41.64-23.58,1.91-4.23,6.91-10.11-1.96-12.4-5.72-1.48-12.73-7.85-16.79,3.35-3.74,10.34-11.91,14.73-23.02,13.4-10.66-1.27-16.64-7.94-19.22-17.56-2.96-11.04-2.41-22.3-.36-33.56,1.89-10.36,6.93-15.72,18.07-17.6,11.18-1.89,18.99,1.28,24.12,10.22,6.02,10.48,13.56,2.81,18.78,1.13,7.31-2.34.87-8.12-.95-11.68-7.35-14.33-21.19-17.92-35.45-18.29-26.77-.7-47.68,17.21-47.47,52.79Zm-152.99-1.21c.16,0,.32,0,.48,0,0,14.12.4,28.25-.15,42.34-.32,8.16,2.78,10.38,10.53,10.17,7.02-.19,11.57-.73,10.84-9.63-.72-8.82.09-17.74-.23-26.61-.21-5.77,2.03-7.87,7.73-7.67,8.86.31,17.75-.12,26.62.14,5.87.17,7.76-2.37,7.53-8-.21-5.26-.25-9.55-7.53-9.25-9.66.4-19.37.28-29.04-.03-10.74-.35-6.75-8.79-7.43-14.49-.7-5.82.09-10.18,7.97-9.81,11.27.53,22.59-.14,33.88.24,6.56.22,9.3-1.61,9.32-8.75.01-7.34-3.21-8.74-9.53-8.65-17.34.25-34.7.3-52.03-.05-6.72-.13-9.33,1.94-9.1,8.94.45,13.69.13,27.4.13,41.1Z"/><path class="d" d="m1789.23,782c3.72,21.74,2.73,43.49.15,65.23-.05-21.75-.1-43.49-.15-65.23Z"/><path class="d" d="m1245.56,480.82c-1.23-16.15-1.32-32.29-.02-48.44,3.05,16.15,3.21,32.29.02,48.44Z"/><path class="d" d="m976.42,3.11c12.73-5.28,25.61-2.65,38.48-.74-12.83.25-25.65.49-38.48.74Z"/><path class="d" d="m1266.93,575.72c-3.58-2.59-2.37-6.24-2.12-9.67,2.75,2.78,2.32,6.25,2.12,9.67Z"/><path class="d" d="m1645.33,808.8c-1.39-.82-2.77-1.65-4.15-2.47,2.22-.57,4-.41,4.15,2.47Z"/><path class="d" d="m1643.99,837.67c.37-.99.73-1.98,1.1-2.96.61,1.35.24,2.34-1.1,2.96Z"/><path class="d" d="m1636.39,806.69c-.87.39-1.75.77-2.61,1.16.48-1.29,1.31-1.76,2.61-1.16Z"/><path class="b" d="m1286.99,1291.74c.65.85,1.29,1.7,1.94,2.54-.65-.85-1.29-1.7-1.94-2.54Z"/><path class="f" d="m255.82,420.07c4.82.29,9.65.44,14.44.91,7.45.74,10.47,6.65,10.17,12.46-.24,4.74-1.66,10.23-9.14,12.11-9.31,2.34-18.66,2.57-27.37.87-11.16-2.18-4.36-12.66-5.86-19.34-1.47-6.56,3.16-7.01,8.07-6.75,3.22.17,6.45.03,9.68.03,0-.1,0-.2.01-.3Z"/><path class="f" d="m436.79,454.47c0-6.88.77-13.86-.17-20.6-1.59-11.38,2.87-15.21,13.8-13.66,22.32,3.15,29.01,6.06,27.89,28.4-.28,5.65.02,11.32-.04,16.98-.14,12.74-9.17,22.87-21.6,22.23-6.44-.33-13.6,6.5-18.13,1.2-4.64-5.43-1.22-14.02-1.69-21.21-.29-4.43-.05-8.89-.05-13.34Z"/><path class="c" d="m1095.87,893.33c0-46.77,0-93.54,0-140.31,1.41-1.05,1.37-2.04-.12-2.97.22-3.53-1.49-7.33,1.48-10.46,27.59,1.11,55.17,2.05,82.74-.46,45.21-1.26,81.71,28.63,85.38,80.03,1.49,20.91,2.06,41.28-2.82,61.48-9.73,40.25-35.14,61.75-78.05,63.41-29.05,1.12-58.16.46-87.25.59,0,0-.59-.65-.59-.65,0,0-.88.09-.88.09.04-15.15.07-30.3.11-45.45,1.64-1.76,1.63-3.53,0-5.29Zm41.27,12.6c1.69,5.41,6.35,3.86,9.97,3.89,11.49.1,22.98-.19,34.47-.33,1.22.88,2.32.76,3.3-.38,23.03-3.37,29.35-9.71,34.79-33.89,5.13-22.84,6.21-46,.85-68.59-4.3-18.15-14.08-31.99-50.25-32.56-.85-1.51-1.79-1.84-2.87-.22-7.13-.05-14.26-.1-21.39-.15-2.71-1.79-5.33-2.48-7.6.69-2.09,4.55-.78,9.4-1.22,14.09-.07,1.25-.13,2.5-.2,3.75.01,36.82.02,73.64.03,110.46.04,1.09.08,2.17.12,3.26Z"/><path class="c" d="m703.29,773.63c-6.11-10.88-2.31-22.36-2.05-33.63,53.62,0,107.24.02,160.86.02,1.9,8.82.56,17.73.74,26.6.05,1.25.1,2.5.15,3.76-.99,1.07-1.98,2.15-2.97,3.22-13.26-1.93-26.51-2.21-39.75.15q-17.34.37-17.68,17.68c-.48,2.31-1.37,4.62-1.37,6.94,0,39.92.1,79.84.18,119.76-.21,8.76-.42,17.52-.62,26.28-13.32-.13-26.65-.26-39.97-.39.06-50.79.2-101.57.13-152.36-.02-17.5-.25-17.5-17.95-17.89-13.23-2.36-26.47-2.14-39.71-.15Z"/><path class="b" d="m865.93,1123.23c.11-.3.2-.85.32-.86.34-.01.69.19,1.04.32-.11.3-.2.85-.32.86-.34.01-.69-.19-1.04-.32Z"/><path class="b" d="m1490.5,801.32c-.86.6-1.71,1.21-2.57,1.81l-.6-.92c1.05-.3,2.1-.61,3.15-.91,0,0,.02.02.02.02Z"/><path class="e" d="m1512.94,422.59c3.22,0,6.44.03,9.67,0,7.14-.09,11.55,2.94,11.76,10.49.22,7.88-3.4,13.12-11.47,13.77-6.8.55-13.69-.17-20.53.08-12.04.44-8.89-8.3-9.72-15.09-.93-7.65,2.17-10.16,9.42-9.35,3.58.4,7.24.07,10.87.1Z"/><path class="d" d="m668.06,1450.74c-2.77-11.55,2.31-14.88,12.77-13.6,5.99.73,12.12.17,18.18.4,6.68.25,9.36,5.5,9.37,10.58.01,5.32-1.83,11.5-8.26,13.17-5.75,1.5-11.76,2.06-17.69,2.79-10.28,1.27-18.53.16-14.38-13.34Z"/><path class="d" d="m1271.64,1437.38c3.22,0,6.45.11,9.67-.02,7.95-.33,14.07,3.2,14.67,11,.66,8.54-5,14.27-13.47,15.42-6.73.91-13.67.19-20.52.36-13.24.33-8.57-9.67-9.49-16.39-.99-7.15.79-11.81,9.49-10.49,3.15.48,6.43.08,9.66.08,0,.02,0,.03,0,.05Z"/><path class="d" d="m1181.12,1505.46c-15.64.05-27.53-11.35-27.99-26.83-.25-8.49-.75-16.95,2.15-25.21,3.45-9.85,18.56-21.48,27.05-20.51,12.81,1.45,23.94,14.31,24.2,28.03.13,7.02.62,14.07.15,21.05-.95,14.4-11.05,23.42-25.56,23.47Z"/><path class="d" d="m912.63,1477.73c3.15-9.63,5.29-17.77,8.56-25.42,1.36-3.2,4.72-4.51,6.4.94,1.15,3.72,3.49,7.08,4.69,10.79,1.68,5.19,7.27,11.6,3.72,15.39-4.09,4.37-12.1,1.24-18.4,1.55-3.3.16-5.44-1.14-4.96-3.25Z"/><path class="c" d="m980.96,740.32c30.35-.69,52.23,14.59,67.54,38.86,6,9.51,8.19,22.06,9.85,33.56,3.71,25.67,4.26,51.44-4.67,76.47-12.68,35.57-37.16,53.5-75.51,54.87-28.99,1.04-58.06.07-87.09,0-.55-.76-1.09-1.52-1.64-2.28-.02-11.97-.04-23.94-.07-35.91,3.24-26.92.99-53.93,1.29-80.9.14-12.8,1.92-25.74-1.3-38.46,0-2.3,0-4.59,0-6.89,2.68-11.61,2.01-23.25.29-34.9-.98-7.38,4.32-5.67,8.36-5.78,27.6,3.17,55.3.84,82.94,1.34Zm-49.06,169.35c1.75,1.45,3.61,1.23,5.51.34,15.63-.65,31.32.8,46.91-1.73,12.95-2.1,22.09-9.3,26.86-20.99,3.23-7.93,4.28-16.76,6.31-25.18,2.6-3.29,2.29-6.83.93-10.47.04-6.86.07-13.71.11-20.57.9-1.24.79-2.35-.4-3.33-2.03-9.6-3.01-19.59-6.39-28.68-2.98-8.02-7.04-15.76-16.6-19.62-12.6-5.09-25.53-4.64-38.49-5.47-6.58-2.7-13.21-2.27-19.85-.27-1.68.24-3.35.48-5.03.72-4.08,3.05-2.14,7.43-2.15,11.17-.16,34.19-.21,68.38,0,102.58.04,6.72-1.65,13.64,1.36,20.19.34.42.65.86.94,1.31Z"/></svg>