<?xml version="1.0" encoding="UTF-8"?><svg id="b" xmlns="http://www.w3.org/2000/svg" width="56" height="52.38" viewBox="0 0 56 52.38"><defs><style>.d{fill:#fcfdfd;}.e{fill:#085062;}.f{fill:#659a9a;}.g{fill:#23a24c;}.h{fill:#e2201f;}</style></defs><g id="c"><path class="h" d="m.16,10.95c.08-.02.05-.09.06-.14.03-.02.08-.04.08-.06.04-.41.22-.77.33-1.16.07-.24.11-.48.22-.71.24-.54.6-1.01.9-1.51.57-.96,1.37-1.74,2.24-2.41.74-.57,1.54-1.08,2.46-1.36.62-.19,1.2-.46,1.85-.54.88-.1,1.74-.21,2.63-.15.88.06,1.73.18,2.53.52.46.19.97.27,1.37.57.13.1.18.08.3,0,.67-.48,1.35-.94,2.11-1.27.65-.28,1.23-.68,1.91-.91,1.03-.35,2.04-.77,3.11-1.02,1.42-.34,2.84-.63,4.3-.65.08,0,.16-.02.25.07.54.55,1.09,1.08,1.64,1.62.2.2.24.39.01.61-.3.29-.56.61-.85.92-.25.26-.54.48-.8.72-.26.24-.7.28-1.06.29-.91.03-1.77.27-2.63.49-1.02.26-2.04.61-3,1.07-.53.25-1.04.57-1.55.85-.15.09-.26.19-.11.37.73.88,1.11,1.94,1.48,2.99.25.69.34,1.45.38,2.2.06,1.05-.04,2.09-.31,3.12-.3,1.14-.71,2.19-1.35,3.18-.56.86-1.31,1.53-2.03,2.24-.32.32-.74.52-1.09.78-.57.43-1.23.63-1.86.9-.36.15-.76.19-1.12.31-.65.23-1.3.31-1.97.32-.44,0-.88,0-1.32,0-.12,0-.22,0-.22.17-.01.62-.03,1.26.1,1.86.15.7.23,1.4.37,2.1.22,1.12.58,2.18.99,3.24.24.63.57,1.22.85,1.83.15.33.11.37-.26.34-.06,0-.11-.02-.16-.04-.52-.15-1.03-.31-1.55-.44-.37-.1-.64.08-.68.47-.06.62-.35,1.19-.44,1.8-.02.09.02.45-.32.37,0,0,0,0,0,0,0-.09-.03-.17-.07-.26-.43-.82-.96-1.6-1.17-2.52-.09-.4-.34-.72-.49-1.1-.47-1.23-.72-2.51-.98-3.78-.06-.28-.04-.57-.13-.86-.09-.28-.04-.59-.09-.88-.09-.43-.12-.87-.11-1.29.02-.78-.03-1.55-.01-2.33,0-.11-.03-.21-.14-.25-.7-.27-1.15-.86-1.69-1.33-.7-.61-1.17-1.41-1.73-2.13,0,0-.02-.02-.02-.02-.27-.64-.56-1.27-.8-1.93-.27-.73-.46-1.5-.48-2.28-.03-.99-.02-1.99.14-2.97Zm9.07.67c-.02.28-.05.55,0,.83v.18c-.07.42.03.85-.08,1.26-.01.05.02.09.08.08,0,.07,0,.13,0,.2-.02.08-.05.17,0,.25.04.03.09.05.13.08.69.07,1.39.06,2.08,0,.09-.47.07-.5-.4-.5-.34,0-.67-.02-1.01,0-.27.02-.31-.12-.28-.33.03-.2-.12-.5.29-.47.32.02.65,0,.97,0,.18,0,.27-.03.27-.24,0-.19-.05-.27-.26-.26-.34.01-.67-.01-1.01,0-.29.01-.2-.19-.2-.33,0-.14-.08-.34.21-.33.37.02.74,0,1.11,0,.16,0,.29.01.28-.22,0-.22-.11-.28-.3-.27-.2,0-.39,0-.59,0-.44.03-.88-.07-1.31.06Zm-.44,2.83c-.12-.14,0-.37-.18-.49-.21-.14-.29-.38-.44-.56-.1-.12-.1-.23.09-.3.34-.14.45-.4.39-.91-.04-.33-.27-.49-.57-.56-.52-.13-1.06-.04-1.58-.07-.15,0-.2.05-.2.2,0,.87,0,1.74,0,2.61,0,.08,0,.15.1.19.31.09.48-.02.49-.35,0-.19,0-.37,0-.56,0-.11-.08-.27.09-.33.15-.05.29.01.41.1.23.17.36.41.48.65.2.4.49.52.92.38Zm3.15-1.42h0c0,.41,0,.81,0,1.22,0,.23.06.34.31.32.26-.02.54-.05.8,0,.64.12,1.22-.58,1.29-1.08.04-.27.06-.57,0-.83-.11-.42-.24-.82-.76-.99-.51-.16-1-.06-1.5-.08-.16,0-.13.14-.13.23,0,.41,0,.81,0,1.22Z"/><path class="g" d="m49.66,32.11s-.02.04-.02.07c-.26.3-.4.66-.49,1.04,0,0,0,0,0,0-.16.15-.16.45-.44.49-.65.08-1.27.3-1.89.48-.31.09-.65.21-.91-.13-.04-.09.04-.21-.08-.27.03-.52-.19-1-.31-1.49-.1-.41-.25-.76-.03-1.17.14-.28.26-.58.38-.86.25-.63.46-1.27.62-1.93.18-.77.48-1.52.46-2.33.13-.13.04-.28.05-.42.16-.5.13-1.02.17-1.53.04-.02.05-.05.03-.08,0-.25,0-.5,0-.74,0-.08-.06-.09-.12-.07-.05,0-.09,0-.14.01-.04-.02-.06,0-.07.03-.18,0-.37.02-.55.02-.73,0-1.46.01-2.19-.13-.56-.1-1.09-.3-1.65-.42-.4-.06-.73-.31-1.11-.43-.02-.06-.05-.1-.11-.13-.5-.22-.93-.55-1.38-.85-.51-.34-.97-.76-1.39-1.21-.95-1.02-1.67-2.21-2.14-3.53,0-.1.02-.2-.06-.28-.38-.77-.5-1.6-.55-2.45.09-.46.09-.93,0-1.39.06-.61.07-1.23.25-1.82.19-.61.4-1.21.65-1.81.22-.53.5-1.02.89-1.44.21-.23.18-.54-.09-.69-.51-.29-1.01-.61-1.59-.76h0c-.09-.16-.28-.14-.42-.21-.65-.32-1.33-.57-2.03-.76-.44-.12-.92-.17-1.37-.27-1.19-.26-2.38-.42-3.6-.4-.11,0-.26.06-.33-.09.08-.09.15-.18.22-.27.36-.29.67-.62.96-.97.08-.09.16-.19.26-.26.49-.37.44-.7-.04-1.08-.56-.45-.97-1.02-1.5-1.49.37,0,.74-.01,1.1-.02.27-.04.52.07.78.07.81.01,1.61.16,2.41.28.55.09,1.11.14,1.63.3.48.15.96.3,1.43.5.65.28,1.36.43,2.02.72.84.37,1.63.84,2.45,1.25.41.21.73.57,1.15.77.13.06.2.07.34,0,.45-.24.91-.51,1.39-.63.81-.19,1.61-.47,2.46-.41.21,0,.43.06.63-.05.19,0,.38,0,.56,0,.06.07.13.05.21.04,1.25.04,2.42.4,3.56.87.16.07.35.13.51.24.36.24.71.51,1.08.72.63.36,1.15.86,1.63,1.38.49.53.93,1.11,1.28,1.76.28.5.49,1.02.72,1.53.42.94.56,1.95.62,2.97,0,.44,0,.89,0,1.33-.05.89-.24,1.74-.51,2.59-.19.6-.44,1.17-.73,1.72-.28.52-.66.99-1.04,1.46-.53.66-1.11,1.28-1.82,1.71-.53.32-.65.69-.57,1.22,0,.62,0,1.25,0,1.87.04.21-.08.4-.08.61.03.68-.16,1.34-.19,2.02-.03.62-.35,1.19-.29,1.83-.01.02-.02.04-.02.06-.19.27-.2.6-.33.89-.21.48-.23,1.02-.47,1.5-.13.27-.27.56-.3.88Zm2.57-18.81s-.04-.05-.06-.07c-.3-.52-.6-1.03-.91-1.54-.12-.2-.34-.11-.51-.1-.19.01-.12.19-.12.3,0,.77,0,1.55,0,2.32,0,.11-.07.29.1.32.15.03.35.09.45-.12.13-.35.03-.72.06-1.08.01-.13-.05-.29.16-.32.29.41.57.83.8,1.28.17.32.42.33.71.18.16-.27.07-.56.07-.84,0-.57.07-1.15-.04-1.72,0-.05,0-.1,0-.14,0,0,.02-.01.02-.02,0-.02-.02-.03-.02-.05-.08-.26-.3-.08-.44-.13-.06-.01-.11,0-.11.07,0,.04,0,.08,0,.11-.05.33-.05.67,0,1,0,.06,0,.12,0,.18,0,.04,0,.07,0,.11,0,.08,0,.16,0,.24-.04.07-.1.02-.15.01h0Zm-6.96,1.19c.69.11,1.39.08,2.08.01.14-.45.11-.5-.33-.5-.2,0-.39,0-.59,0q-.75,0-.67-.77c.39,0,.78,0,1.17,0,.38,0,.45-.13.29-.51-.1,0-.2-.01-.3-.02-.39-.09-.78-.02-1.17-.04,0-.19,0-.37,0-.56.51-.03,1.02.05,1.52-.05.17-.43.12-.5-.31-.5-.46,0-.93.01-1.39,0-.28-.01-.39.05-.38.36.02.77,0,1.55,0,2.32,0,.09-.03.19.06.26Zm2.66-.02c.03.09.11.08.17.08.61,0,1.23,0,1.84,0,.07,0,.14,0,.17-.08q.02-.47-.43-.47c-.29,0-.57,0-.86,0-.12,0-.34.08-.34-.1,0-.22-.16-.49.11-.67.44.02.88.06,1.32-.02.11-.11.04-.25.06-.38.02-.11-.04-.15-.13-.15-.37,0-.73-.05-1.1.04-.05,0-.1,0-.14,0-.02-.01-.05-.02-.07-.04-.13-.17-.04-.37-.06-.55.31,0,.61,0,.92-.01.22-.01.45.08.65-.07-.04-.17.17-.46-.19-.47-.59-.02-1.18,0-1.77,0-.09,0-.18-.02-.18.16.02.91.02,1.83.02,2.75Zm-6.18-1.45s-.07-.07-.11-.1c-.05-.06-.09-.05-.14,0-.05,0-.09,0-.14,0-.28-.06-.55-.09-.83.01-.13.44-.11.48.32.49.12,0,.25-.01.29.13.03.08.02.17-.05.26-.3.35-.94.33-1.25-.02-.28-.32-.22-.68-.22-1.04,0-.32.23-.62.51-.69.37-.09.7.02.89.29.15.22.36.13.53.05.17-.08.07-.21,0-.34-.31-.61-1.48-.59-1.87-.36-.79.49-.94,1.76-.31,2.38.33.32.69.57,1.25.44.38-.09.73-.24,1.08-.38.04-.01.06-.04.04-.09,0-.03,0-.06,0-.1.04-.31.06-.62,0-.92Zm1.13,1.17c0-.2,0-.39,0-.59,0-.32.15-.4.45-.25.26.13.34.39.46.6.28.51.39.59.98.5-.06-.29-.34-.8-.59-1.02-.17-.15-.21-.2.04-.33.42-.22.51-.5.41-1-.07-.32-.35-.35-.62-.44-.46-.16-.92-.06-1.37-.1-.26-.03-.36.05-.36.34.02.74,0,1.48,0,2.22,0,.47.09.53.55.35.03,0,.07,0,.1,0-.01-.02-.02-.03-.03-.05,0-.05-.01-.09-.02-.14,0-.03,0-.06,0-.09Z"/><path class="f" d="m12.4,40.38s-.04-.04-.05-.06c-.1-.11-.2-.23-.31-.33-1.18-1.12-2.21-2.36-3.13-3.7-.09-.13-.17-.25-.11-.41.26-.65.38-1.33.57-2,.16-.57.27-.62.84-.47.48.13.93.32,1.43.38.57.07.98.37,1.26.88.1.19.22.4.43.51.04.06.08.12.12.18.34.47.75.88,1.15,1.29,1,1,2.07,1.91,3.28,2.64.03.02.05.03.08.05.18.24.32.1.41-.07.08-.15.1-.33.15-.49,0,0,0,0,0,0,.4-.99.9-1.92,1.51-2.79.05-.08.07-.17.16-.22.13-.08.24-.19.29-.34.02,0,.03-.02.04-.05.59-.58,1.19-1.13,1.86-1.62.06,0,.1-.02.12-.08.97-.63,2.02-1.07,3.13-1.39.05,0,.09-.02.14-.02.52-.09,1.06-.13,1.58-.2.95-.13,1.87.02,2.8.14.63.08,1.21.35,1.82.51h.01s.01,0,.01,0c.03.04.05.09.08.1,1.18.43,2.17,1.16,3.09,2,.68.63,1.21,1.39,1.74,2.15,0,.02,0,.04.02.05.02.02.04.05.06.07h0c.35.72.71,1.45.93,2.23.05.2.13.19.28.1.29-.17.57-.35.82-.57.04-.03.09-.06.13-.09.74-.47,1.41-1.04,2.04-1.66.07-.06.13-.13.2-.19,1.31-1.2,2.35-2.61,3.28-4.2.13.4.23.73.33,1.05.08.36.14.72.23,1.07.13.49.27.6.64.51.57-.14,1.14-.32,1.7-.48h0c.25.02.47-.16.74-.12-.22.36-.42.7-.63,1.04-.53.85-1.16,1.63-1.76,2.42,0,0,0,0,0,0-.02.02-.04.04-.06.06,0,0,0,.02,0,.02-.31.34-.61.68-.92,1.02,0,0,0,0,0,0-.13.01-.2.08-.21.21,0,0,0,0,0,0-.75.67-1.49,1.34-2.24,2.01,0,0,0,0,0,0-.4.2-.72.52-1.09.77-.99.68-2.03,1.27-3.09,1.82-.14.07-.31.13-.24.35,0,.05-.01.09-.02.14-.14.46-.29.92-.43,1.39,0,0,0,0,0,0-.24.37-.38.79-.58,1.19-.04.05-.07.1-.11.15-.18.07-.16.27-.25.4-2.04,2.96-4.86,4.5-8.45,4.61-.73.02-1.44-.04-2.16-.2-.86-.2-1.67-.51-2.48-.83-.45-.18-.76-.57-1.22-.71-.05-.04-.1-.09-.14-.13-.81-.62-1.54-1.32-2.17-2.13-.53-.68-.92-1.43-1.3-2.2-.02-.05-.04-.09-.06-.14-.17-.54-.33-1.08-.51-1.62-.03-.09-.1-.17-.2-.22-.57-.32-1.14-.64-1.71-.97-.1-.06-.18-.15-.31-.1-.04-.03-.09-.06-.13-.09-.29-.22-.58-.44-.87-.66-.36-.27-.73-.52-1.08-.8-.5-.39-.98-.79-1.47-1.19Zm20.26.85c-.1-.16.16-.49-.23-.5-.62-.01-1.25,0-1.87,0-.21,0-.22.12-.22.27,0,.14.02.25.21.24.11,0,.23.01.35,0,.25-.03.31.08.31.31-.01.62,0,1.25,0,1.87,0,.21.09.25.27.25.17,0,.32,0,.31-.24-.02-.45,0-.9,0-1.35q0-.87.9-.84c.03.1-.05.17-.09.26-.28.65-.09,1.57.39,1.93.84.64,2,.18,2.23-.62.07-.24.02-.48.04-.72.09-1.08-1.17-1.6-1.88-1.33-.28.11-.46.33-.69.49Zm-12.41,1.15c.66-.31.79-.62.57-1.23-.07-.2-.2-.29-.39-.34-.51-.13-1.03-.07-1.55-.09-.28-.01-.39.1-.35.37.11.75.03,1.5.05,2.25,0,.18-.02.34.26.33.24,0,.34-.08.32-.33-.01-.17,0-.35,0-.52,0-.36.12-.43.47-.3.13.05.21.14.28.25.16.24.33.48.48.72.07.12.16.17.31.17.8-.01,1.6-.01,2.4,0,.17,0,.25-.04.25-.23,0-.19-.04-.27-.25-.27-.37.01-.74,0-1.11,0-.18,0-.26-.05-.24-.23,0-.1.01-.21,0-.31-.03-.22.08-.28.28-.27.32.01.65,0,.97,0,.21,0,.21-.12.21-.27,0-.16-.04-.23-.22-.23-.34,0-.67-.01-1.01,0-.25.01-.25-.14-.24-.31,0-.17-.04-.36.24-.34.35.02.7,0,1.04,0,.17,0,.25-.04.25-.23,0-.18-.04-.28-.25-.27-.39.01-.79,0-1.18,0-.82,0-.8.03-.71.86.07.62.01,1.26.01,1.96-.31-.43-.49-.86-.89-1.17Zm16.77.02c.1-.05.15-.08.2-.1.44-.21.63-.51.51-.93-.1-.39-.31-.61-.8-.62-.44-.01-.88,0-1.32-.01-.15,0-.24.04-.23.21,0,.83,0,1.67,0,2.5,0,.24.14.22.29.22.17,0,.33.02.31-.24-.02-.24,0-.49,0-.73,0-.34.08-.39.39-.23.38.2.54.6.74.94.15.25.33.27.56.27.2,0,.27-.09.17-.25-.22-.36-.4-.76-.83-1.02Zm-10.47-1.64c-.27-.07-.37.06-.46.31-.27.75-.58,1.49-.86,2.23-.04.1-.19.22-.07.32.11.09.27.06.42,0,.16-.07.24-.19.26-.34.05-.28.27-.28.47-.27.1,0,.21.04.3.03.37-.05.61.06.7.46.07.31.36.18.52.14.17-.04.07-.22.02-.35-.3-.76-.61-1.52-.89-2.29-.08-.21-.19-.3-.42-.25Zm1.31,1.44c-.02.18.02.38.08.58.15.51.66.93,1.15.96.49.03,1-.25,1.19-.68.05-.12.2-.29-.06-.36-.16-.04-.37-.23-.48.1-.11.3-.34.42-.66.38-.31-.04-.48-.23-.55-.5-.08-.32-.07-.64-.01-.96.05-.3.2-.45.52-.5.32-.05.54.04.69.29.17.3.39.08.54.03.21-.07.02-.23-.03-.33-.21-.41-.61-.51-1.02-.52-.77-.02-1.37.49-1.36,1.51Zm-4.39-.03s0,0,.01,0c0,.4.01.81,0,1.21,0,.23.08.3.3.29.2,0,.33-.02.31-.28-.02-.25,0-.51,0-.76,0-.17.06-.23.22-.22.25,0,.51,0,.76,0,.17,0,.22-.07.22-.23,0-.15,0-.27-.22-.27-.28.01-.56,0-.83,0-.31,0-.19-.25-.21-.42-.02-.17,0-.29.23-.28.32.02.65,0,.97,0,.19,0,.27-.05.27-.25,0-.21-.09-.25-.27-.25-.5,0-1,0-1.49,0-.19,0-.27.06-.26.26.01.39,0,.79,0,1.18Z"/><path class="f" d="m51.33,22.43c.11.62.08,1.25,0,1.87,0-.62,0-1.25,0-1.87Z"/><path class="f" d="m35.73,13.79c-.04-.46-.04-.93,0-1.39.09.46.09.93,0,1.39Z"/><path class="f" d="m28.01.09c.37-.15.73-.08,1.1-.02-.37,0-.74.01-1.1.02Z"/><path class="f" d="m36.34,16.52c-.1-.07-.07-.18-.06-.28.08.08.07.18.06.28Z"/><path class="f" d="m47.2,23.2s-.08-.05-.12-.07c.06-.02.11-.01.12.07Z"/><path class="f" d="m47.16,24.03s.02-.06.03-.09c.02.04,0,.07-.03.09Z"/><path class="f" d="m46.94,23.14s-.05.02-.08.03c.01-.04.04-.05.08-.03Z"/><path class="d" d="m36.92,37.06s.04.05.06.07c-.02-.02-.04-.05-.06-.07Z"/><path class="h" d="m7.34,12.05c.14,0,.28.01.41.03.21.02.3.19.29.36,0,.14-.05.29-.26.35-.27.07-.54.07-.79.02-.32-.06-.13-.36-.17-.55-.04-.19.09-.2.23-.19.09,0,.19,0,.28,0,0,0,0,0,0,0Z"/><path class="h" d="m12.53,13.04c0-.2.02-.4,0-.59-.05-.33.08-.44.4-.39.64.09.83.17.8.81,0,.16,0,.32,0,.49,0,.37-.26.66-.62.64-.18,0-.39.19-.52.03-.13-.16-.04-.4-.05-.61,0-.13,0-.26,0-.38Z"/><path class="e" d="m31.44,25.63c0-1.34,0-2.68,0-4.02.04-.03.04-.06,0-.09,0-.1-.04-.21.04-.3.79.03,1.58.06,2.37-.01,1.3-.04,2.34.82,2.45,2.3.04.6.06,1.18-.08,1.76-.28,1.15-1.01,1.77-2.24,1.82-.83.03-1.67.01-2.5.02,0,0-.02-.02-.02-.02,0,0-.03,0-.03,0,0-.43,0-.87,0-1.3.05-.05.05-.1,0-.15Zm1.18.36c.05.16.18.11.29.11.33,0,.66,0,.99,0,.03.03.07.02.09-.01.66-.1.84-.28,1-.97.15-.66.18-1.32.02-1.97-.12-.52-.4-.92-1.44-.93-.02-.04-.05-.05-.08,0h-.61c-.08-.06-.15-.08-.22.02-.06.13-.02.27-.04.4,0,.04,0,.07,0,.11,0,1.06,0,2.11,0,3.17,0,.03,0,.06,0,.09Z"/><path class="e" d="m20.17,22.19c-.18-.31-.07-.64-.06-.96,1.54,0,3.08,0,4.61,0,.05.25.02.51.02.76,0,.04,0,.07,0,.11-.03.03-.06.06-.09.09-.38-.06-.76-.06-1.14,0q-.5.01-.51.51c-.01.07-.04.13-.04.2,0,1.15,0,2.29,0,3.44,0,.25-.01.5-.02.75-.38,0-.76,0-1.15-.01,0-1.46,0-2.91,0-4.37,0-.5,0-.5-.51-.51-.38-.07-.76-.06-1.14,0Z"/><path class="d" d="m24.84,32.22s0-.02,0-.02c0,0,.02,0,.03,0,0,0,0,.02,0,.02,0,0-.02,0-.03,0Z"/><path class="d" d="m42.76,22.99s-.05.03-.07.05l-.02-.03s.06-.02.09-.03c0,0,0,0,0,0Z"/><path class="g" d="m43.4,12.12c.09,0,.18,0,.28,0,.2,0,.33.08.34.3,0,.23-.1.38-.33.4-.2.02-.39,0-.59,0-.35.01-.25-.24-.28-.43-.03-.22.06-.29.27-.27.1.01.21,0,.31,0Z"/><path class="f" d="m19.16,41.62c-.08-.33.07-.43.37-.39.17.02.35,0,.52.01.19,0,.27.16.27.3,0,.15-.05.33-.24.38-.16.04-.34.06-.51.08-.29.04-.53,0-.41-.38Z"/><path class="f" d="m36.48,41.23c.09,0,.19,0,.28,0,.23,0,.4.09.42.32.02.24-.14.41-.39.44-.19.03-.39,0-.59.01-.38,0-.25-.28-.27-.47-.03-.21.02-.34.27-.3.09.01.18,0,.28,0,0,0,0,0,0,0Z"/><path class="f" d="m33.88,43.19c-.45,0-.79-.33-.8-.77,0-.24-.02-.49.06-.72.1-.28.53-.62.78-.59.37.04.69.41.69.8,0,.2.02.4,0,.6-.03.41-.32.67-.73.67Z"/><path class="f" d="m26.18,42.39c.09-.28.15-.51.25-.73.04-.09.14-.13.18.03.03.11.1.2.13.31.05.15.21.33.11.44-.12.13-.35.04-.53.04-.09,0-.16-.03-.14-.09Z"/><path class="e" d="m28.14,21.24c.87-.02,1.5.42,1.94,1.11.17.27.23.63.28.96.11.74.12,1.48-.13,2.19-.36,1.02-1.07,1.53-2.17,1.57-.83.03-1.67,0-2.5,0-.02-.02-.03-.04-.05-.07,0-.34,0-.69,0-1.03.09-.77.03-1.55.04-2.32,0-.37.06-.74-.04-1.1,0-.07,0-.13,0-.2.08-.33.06-.67,0-1-.03-.21.12-.16.24-.17.79.09,1.59.02,2.38.04Zm-1.41,4.86c.05.04.1.04.16,0,.45-.02.9.02,1.35-.05.37-.06.63-.27.77-.6.09-.23.12-.48.18-.72.07-.09.07-.2.03-.3,0-.2,0-.39,0-.59.03-.04.02-.07-.01-.1-.06-.28-.09-.56-.18-.82-.09-.23-.2-.45-.48-.56-.36-.15-.73-.13-1.1-.16-.19-.08-.38-.07-.57,0-.05,0-.1.01-.14.02-.12.09-.06.21-.06.32,0,.98,0,1.96,0,2.94,0,.19-.05.39.04.58,0,.01.02.02.03.04Z"/></g></svg>